<svg xmlns="http://www.w3.org/2000/svg" xmlns:xlink="http://www.w3.org/1999/xlink" version="1.1" id="Layer_1" x="0px" y="0px" width="100%" viewBox="0 0 543 173" enable-background="new 0 0 543 173" xml:space="preserve">
<path fill="transparent" opacity="1.000000" stroke="none" d=" M356.000000,174.000000   C237.333359,174.000000 119.166710,174.000000 1.000048,174.000000   C1.000032,116.333366 1.000032,58.666729 1.000016,1.000071   C181.999939,1.000047 362.999878,1.000047 543.999878,1.000024   C543.999878,58.666592 543.999878,116.333183 543.999939,173.999878   C481.500000,174.000000 419.000000,174.000000 356.000000,174.000000  M195.539490,118.443169   C196.217377,119.251808 196.895264,120.060448 197.573166,120.869087   C198.375534,119.917633 199.177902,118.966187 200.585480,117.297073   C198.266937,117.150261 197.157059,117.079979 196.178726,116.346153   C197.441116,114.224480 198.703506,112.102798 200.368347,110.282661   C199.979767,111.979523 199.591202,113.676384 199.202621,115.373245   C199.610565,115.560158 200.018494,115.747070 200.426437,115.933983   C202.648636,111.645233 204.870850,107.356483 207.493683,102.776443   C207.470688,102.388947 207.447693,102.001450 207.424698,101.613953   C207.243591,102.038612 207.062469,102.463272 206.175568,103.277519   C205.418549,103.596565 204.661530,103.915611 203.627213,103.362305   C206.359009,96.907784 209.090790,90.453262 212.143585,83.373436   C214.774384,78.287308 217.405167,73.201180 220.700958,67.931351   C223.519363,63.644421 226.337753,59.357498 229.681732,54.617500   C230.941010,51.385689 232.171783,48.142426 233.464600,44.924091   C238.495789,32.399384 238.432098,32.084675 228.526993,23.000284   C228.409180,22.892241 228.236572,22.843924 227.794601,22.191326   C226.194733,21.135426 224.594879,20.079525 222.392563,18.549147   C220.594391,18.382441 218.796204,18.215733 216.127243,17.923504   C212.358047,18.413292 208.588867,18.903078 204.036575,19.484430   C200.650787,20.868443 197.264999,22.252457 193.190567,23.870676   C189.341064,26.118320 185.370605,28.185545 181.675034,30.662815   C177.739792,33.300732 177.946350,35.507397 182.442032,37.132240   C186.139221,38.468498 190.133682,38.982281 194.711838,39.851368   C198.500229,37.967697 202.288635,36.084030 206.813797,34.070709   C210.262451,32.873352 213.711090,31.675993 217.930634,30.383055   C219.623062,29.933298 221.315491,29.483541 223.714813,29.239292   C223.935837,30.490566 224.658905,31.916605 224.294296,32.964027   C222.305878,38.676212 220.049789,44.295231 217.354477,50.384537   C214.229919,56.576313 211.105347,62.768093 207.455536,69.395546   C203.631638,76.261307 199.807739,83.127075 195.441605,90.413307   C191.865952,97.097488 188.290283,103.781670 184.195908,110.961555   C180.411865,120.098221 175.985977,129.032562 173.024368,138.428467   C170.064087,147.820099 173.222397,151.326462 183.944794,152.772354   C188.905640,155.372406 193.913528,156.239075 199.842102,153.213165   C203.386490,151.878860 207.018188,150.733582 210.447342,149.149796   C213.137589,147.907272 213.103882,145.917542 211.193069,143.903656   C206.556946,145.634644 202.197113,147.262482 197.109756,148.950546   C195.605515,149.265564 194.101273,149.580566 192.597031,149.895584   C192.522980,149.625092 192.448914,149.354599 192.374863,149.084106   C194.239273,147.951889 196.103683,146.819687 198.584549,145.470047   C201.034454,143.488525 204.763229,142.551666 204.849594,136.814560   C201.244339,139.272247 198.560806,141.101578 195.122314,142.981537   C193.233734,143.777695 191.345169,144.573837 189.456604,145.369995   C189.093018,145.106033 188.729431,144.842072 188.365845,144.578110   C191.208878,137.297806 194.051910,130.017517 196.791641,123.001778   C194.149628,123.366951 191.502335,123.732864 188.861633,123.466125   C188.825729,123.258308 188.789810,123.050499 188.678650,122.351974   C188.490021,121.917900 188.301376,121.483826 188.770081,120.971016   C189.405487,120.421700 190.040909,119.872383 191.020050,120.021698   C193.460663,121.792801 193.981506,120.397736 194.503891,118.052902   C194.672714,118.036758 194.841537,118.020622 195.539490,118.443169  M59.159500,141.701202   C61.881672,143.267563 64.603844,144.833939 67.326019,146.400299   C67.590691,146.022903 67.855362,145.645508 68.120033,145.268112   C65.795090,142.821808 63.470154,140.375519 60.857765,137.287399   C59.257919,134.517807 57.658073,131.748215 55.964970,128.259537   C54.562218,125.175072 53.159462,122.090614 51.669003,118.272644   C50.610081,114.782669 49.551163,111.292694 48.395126,106.944687   C45.356434,91.920830 45.687004,76.938263 49.359791,61.392082   C50.637192,57.404991 51.914593,53.417904 53.722874,48.936905   C55.513958,45.355824 57.305042,41.774742 59.671532,37.826496   C61.855804,34.753677 64.040077,31.680859 66.224350,28.608040   C65.877472,28.201599 65.530594,27.795160 65.183708,27.388720   C62.761616,28.831615 60.339523,30.274511 57.230076,31.860386   C55.146008,33.552429 53.061939,35.244473 50.363182,37.153641   C48.869915,38.678772 47.376648,40.203903 45.299351,42.035480   C43.952881,43.694565 42.606411,45.353645 40.765549,47.453484   C39.811802,48.897099 38.858059,50.340710 37.333340,52.123856   C36.509567,53.659496 35.685791,55.195137 34.292816,57.162636   C33.070744,60.053413 31.848669,62.944191 30.115469,66.354645   C26.026749,79.684387 25.756289,92.972870 30.720703,106.923546   C31.806929,109.285606 32.893154,111.647667 34.029549,114.712296   C35.577450,117.069580 37.125351,119.426857 38.798893,122.353104   C39.520748,123.241219 40.242603,124.129326 41.141876,125.654572   C42.434940,127.100334 43.728004,128.546097 45.400795,130.509552   C46.533279,131.487808 47.665760,132.466049 49.084949,133.953232   C50.007374,134.660156 50.929798,135.367081 52.160339,136.668091   C54.361591,138.156494 56.562840,139.644897 59.159500,141.701202  M95.400810,21.874855   C93.599525,20.620031 91.798241,19.365210 89.227997,17.924927   C86.857353,18.962255 84.486702,19.999586 81.533546,21.360140   C80.304153,23.213371 79.074753,25.066603 77.227982,27.262278   C75.537689,32.176338 73.847397,37.090397 71.844749,42.714314   C66.273987,63.394199 65.536140,84.451462 67.599396,105.599274   C68.431953,114.132851 70.626472,122.533562 72.179443,131.754395   C73.958359,136.243164 75.737274,140.731949 77.775536,145.868195   C79.453537,147.943817 81.131538,150.019424 83.119888,152.733749   C85.077530,153.425079 87.035172,154.116409 89.702080,154.914398   C91.771652,153.598984 93.841217,152.283569 96.503456,150.635086   C99.032463,145.772842 101.561470,140.910614 104.635185,136.416611   C105.702843,138.303375 106.770508,140.190155 108.004784,142.740112   C109.662979,144.186600 111.321167,145.633102 113.412033,147.585251   C114.274483,147.738312 115.136940,147.891373 116.719727,148.280548   C118.146393,147.497757 119.573067,146.714981 121.691544,145.973465   C124.081589,141.974518 126.471634,137.975571 129.316925,133.404907   C130.763184,127.602386 132.209442,121.799866 133.930481,115.205559   C137.103363,93.980080 137.316940,72.818420 132.433792,50.950703   C130.336685,45.172470 128.239563,39.394238 125.980980,32.979401   C124.352539,30.970037 122.724106,28.960674 120.669502,26.345453   C118.777618,25.994999 116.885727,25.644545 114.336273,25.333195   C112.460037,26.993416 110.583801,28.653635 108.157158,30.760681   C106.768219,32.840702 105.379272,34.920727 103.843544,36.279377   C101.223648,31.611336 98.603745,26.943295 95.400810,21.874855  M334.929291,154.283432   C337.618073,153.918472 340.306824,153.553513 343.659698,153.415543   C346.024384,152.634415 348.389038,151.853302 349.993744,151.323227   C349.993744,147.447769 349.730194,144.496124 350.061249,141.612747   C350.464874,138.097061 351.368225,134.638763 352.812012,131.037003   C353.651886,130.638885 355.069458,130.406616 355.239014,129.816071   C356.457855,125.570778 357.531616,121.275375 358.434570,116.950607   C359.141388,113.565346 358.324127,108.833893 360.313812,106.950478   C364.993073,102.521095 363.592163,96.976448 365.587738,92.045372   C366.945190,91.305283 368.302643,90.565193 369.576904,89.870476   C370.228882,92.264107 370.867462,94.608498 371.506042,96.952888   C371.947205,96.850716 372.388367,96.748535 372.829529,96.646362   C374.784485,81.462631 374.436676,66.290321 370.468475,51.455982   C369.599060,48.205814 365.571533,45.800426 362.475922,42.521412   C358.670074,41.266727 354.864197,40.012043 350.437683,38.271976   C342.922485,37.092178 339.147247,39.463463 334.457886,48.453297   C332.287170,51.560856 332.762115,57.730930 325.589508,55.255608   C324.257355,56.882881 322.176331,58.319843 321.707062,60.166393   C316.016998,82.557220 313.657867,105.278893 316.166748,128.326813   C317.045593,136.399994 318.296661,144.511322 324.135498,151.741928   C326.694580,155.455521 330.128632,155.774658 334.929291,154.283432  M277.299194,26.033045   C274.743774,28.730028 272.188385,31.427013 269.077637,34.587563   C266.719025,38.056965 264.360413,41.526367 262.060974,44.122837   C261.937561,40.915634 263.193176,36.809437 257.137848,37.134197   C256.410889,41.409172 255.683029,45.689407 254.281403,49.477928   C254.143890,47.496437 254.048279,45.510891 253.856812,43.534626   C253.673508,41.642395 253.390625,39.759808 253.151489,37.872982   C252.874527,37.928986 252.597565,37.984985 252.320602,38.040989   C251.720367,41.978428 251.120132,45.915871 250.491974,50.036507   C249.273102,49.293175 248.416656,48.770882 247.072952,47.951424   C246.741104,54.631596 246.118668,60.740105 246.199188,66.839333   C246.383179,80.778877 246.926224,94.713478 247.289215,108.650978   C247.387772,112.436012 247.075882,116.253296 247.454117,120.005196   C248.378876,129.178528 250.271942,138.309921 250.440399,147.482712   C250.539505,152.878296 251.927444,154.746246 257.719086,154.555435   C266.359344,155.468399 266.238831,155.480301 265.382721,146.809891   C265.031067,143.248566 265.324493,139.623535 265.324493,135.977585   C265.925354,136.362640 266.442169,136.693817 267.275787,137.611954   C271.186859,141.740402 275.097931,145.868851 279.383759,150.556076   C284.003601,155.369202 291.515411,155.030518 298.194946,149.711563   C292.357635,143.473785 286.520355,137.235992 280.442139,130.390121   C279.337433,127.940178 278.232727,125.490242 277.718567,122.755005   C279.181885,120.911606 280.645233,119.068207 282.689301,116.845924   C285.171448,112.588852 287.653625,108.331772 290.672485,103.645172   C293.153320,98.114395 295.634155,92.583611 298.635590,86.587044   C301.333496,76.437721 305.114899,66.423561 306.402893,56.098366   C307.531189,47.053574 306.466064,37.421001 296.611694,31.203487   C293.774628,29.723755 290.937561,28.244024 287.642914,26.248852   C284.473541,24.606943 281.289062,23.425529 277.299194,26.033045  M419.220703,134.181229   C419.220703,134.181229 419.304932,134.217438 419.833435,133.752106   C421.331604,127.634361 422.691559,121.478096 424.382111,115.413986   C425.326965,112.024734 426.894165,108.813698 428.040192,105.474068   C428.765991,103.359009 429.232727,101.155037 430.003265,98.225578   C430.616791,94.577866 431.276611,90.962715 436.356323,89.986122   C436.356323,95.013367 436.356323,99.980270 435.973846,105.589874   C435.075043,106.721329 433.710297,107.727509 433.366028,109.008049   C432.386505,112.651466 431.743622,116.393951 431.142151,120.125481   C430.950531,121.314346 431.303864,122.591057 431.407837,123.827583   C432.117615,123.878853 432.827362,123.930122 433.537109,123.981400   C434.973633,117.643791 436.410156,111.306183 438.006989,104.148499   C440.730804,87.985451 440.557220,71.820221 437.878082,55.681248   C436.888062,49.717697 434.576752,44.565697 427.570007,42.163425   C424.067749,41.017361 420.565521,39.871292 416.435486,38.250637   C410.795135,36.744129 406.668915,38.736443 403.256287,44.104950   C401.695312,46.967678 400.264587,49.913284 398.518494,52.658241   C397.643768,54.033302 396.194092,55.042648 394.295929,55.986465   C389.632172,53.783585 388.636505,56.861038 387.651398,60.401680   C382.523926,78.830185 380.944946,97.706367 381.329895,116.688126   C381.551178,127.600403 382.310944,138.680847 387.967804,148.606506   C391.548309,154.889008 394.125122,156.024185 401.912323,154.184662   C406.278320,153.406525 411.007172,153.376617 414.847443,151.514343   C416.598938,150.664993 416.683167,146.219467 417.363403,143.366821   C417.948181,140.914429 418.305054,138.407700 419.043793,135.348221   C419.100952,134.928711 419.158112,134.509186 419.220703,134.181229  M492.845459,116.006424   C498.349609,116.762215 501.460693,114.274506 502.639099,108.950272   C503.305389,105.939896 504.200928,102.980270 505.394257,99.408875   C505.954254,98.011574 506.514221,96.614273 507.197876,94.908424   C508.106049,106.351608 508.974640,117.182640 509.812378,128.016052   C509.901672,129.171097 510.258820,130.623535 509.731506,131.457077   C506.032593,137.304108 508.356415,143.637634 508.222961,149.705994   C508.097717,155.400803 509.910156,156.066849 516.083252,153.241791   C518.618774,152.474060 521.376648,152.091690 523.610901,150.802002   C525.079712,149.954147 526.701599,147.799316 526.704956,146.226456   C526.741943,128.926559 526.526917,111.625229 526.273804,94.325851   C526.040161,78.358078 525.961487,62.379681 525.259460,46.430393   C524.865967,37.490028 523.043091,36.578163 515.072754,38.313335   C514.015930,42.791908 513.044861,46.907017 511.461060,51.186924   C509.142975,48.471157 509.462616,51.459511 509.253754,52.338184   C507.789917,58.496498 506.520477,64.701378 505.026306,70.851868   C504.661774,72.352432 503.692657,73.706123 502.420715,74.738037   C502.150208,73.934013 501.879700,73.129982 501.487671,71.964874   C500.196686,75.175659 499.095825,77.913536 497.994965,80.651405   C497.739319,80.551193 497.483704,80.450981 497.228088,80.350769   C497.106140,78.727676 496.984192,77.104584 496.862274,75.481491   C496.408752,75.284637 495.955231,75.087791 495.501740,74.890938   C493.952393,78.235153 492.403046,81.579361 490.256989,84.555679   C488.112915,76.374298 485.968811,68.192924 483.798157,59.266876   C482.195068,54.520584 480.591980,49.774292 478.915070,44.345840   C477.782898,42.443314 476.650726,40.540787 475.464142,38.546833   C475.122437,38.808411 474.552917,39.019001 474.444214,39.371635   C474.163910,40.281204 474.087250,41.253551 473.233063,42.122055   C470.591858,40.405830 467.564178,39.574345 465.553955,36.523960   C464.155792,34.402378 460.860657,33.530907 458.412994,32.100956   C457.400055,34.339081 456.387146,36.577206 455.102966,39.498444   C454.736145,41.628292 454.320892,43.751091 454.009827,45.889046   C449.273743,78.438026 448.246613,111.176971 448.996704,144.007324   C449.193390,152.614838 449.172485,152.616150 457.600647,150.344437   C457.752441,150.303513 457.877411,150.163025 458.773712,149.776978   C459.530518,149.529114 460.337830,148.969818 461.036041,149.083084   C466.231140,149.925934 467.001831,147.296722 467.037903,142.766739   C467.174347,125.644623 467.601837,108.521904 468.177155,91.408043   C468.340729,86.543251 469.375305,81.707748 470.709900,77.355621   C473.122101,88.832184 475.457916,100.325897 478.026215,111.767410   C478.425537,113.546364 479.886688,115.086967 481.556427,116.936584   C485.038330,116.588203 488.520203,116.239822 492.845459,116.006424  M150.957092,71.655670   C149.685089,70.300491 148.413086,68.945305 147.141083,67.590126   C145.953705,69.082703 144.198227,70.399643 143.673416,72.097069   C140.800232,81.390213 140.902435,90.790794 143.823959,100.057487   C144.304413,101.581421 146.001770,102.721695 147.136719,104.039284   C148.404465,102.686989 150.308350,101.544426 150.834763,99.947723   C153.831238,90.858978 153.766571,81.639977 150.957092,71.655670  M365.368408,127.196671   C369.007080,118.804680 372.364441,110.339912 371.742126,100.836060   C368.173065,109.296303 364.965332,117.858398 365.368408,127.196671  z"/>
<path fill="#FA06D5" opacity="1.000000" stroke="none" d=" M512.073792,51.022125   C513.044861,46.907017 514.015930,42.791908 515.072754,38.313335   C523.043091,36.578163 524.865967,37.490028 525.259460,46.430393   C525.961487,62.379681 526.040161,78.358078 526.273804,94.325851   C526.526917,111.625229 526.741943,128.926559 526.704956,146.226456   C526.701599,147.799316 525.079712,149.954147 523.610901,150.802002   C521.376648,152.091690 518.618774,152.474060 515.355591,152.937988   C514.416138,143.137756 514.057434,133.641891 514.021729,124.144821   C513.934326,100.904816 514.023193,77.664131 513.916077,54.424286   C513.910828,53.287422 512.715149,52.156048 512.073792,51.022125  z"/>
<path fill="#9F59E5" opacity="1.000000" stroke="none" d=" M401.008850,154.161362   C394.125122,156.024185 391.548309,154.889008 387.967804,148.606506   C382.310944,138.680847 381.551178,127.600403 381.329895,116.688126   C380.944946,97.706367 382.523926,78.830185 387.651398,60.401680   C388.636505,56.861038 389.632172,53.783585 394.649048,56.554592   C394.998169,78.069969 394.994171,99.017220 394.953613,120.421425   C395.259399,125.636894 395.601807,130.395401 395.827545,133.532990   C397.820038,134.940460 399.190674,135.404724 399.602753,136.306824   C400.410187,138.074585 400.683411,140.086349 400.809601,142.002716   C400.010376,142.905823 399.120361,143.863861 399.229431,144.690063   C399.649170,147.870041 400.388611,151.007843 401.008850,154.161362  z"/>
<path fill="#D32FDD" opacity="1.000000" stroke="none" d=" M470.010406,76.858810   C469.375305,81.707748 468.340729,86.543251 468.177155,91.408043   C467.601837,108.521904 467.174347,125.644623 467.037903,142.766739   C467.001831,147.296722 466.231140,149.925934 461.036041,149.083084   C460.337830,148.969818 459.530518,149.529114 458.389679,149.509705   C458.273254,147.371170 458.540894,145.499939 458.784210,143.193573   C458.153290,129.893997 457.546661,117.029549 457.001526,103.739578   C457.346436,93.463593 457.629883,83.613106 458.103546,73.454239   C458.983002,70.965309 459.672241,68.784760 460.535217,66.054604   C460.984192,68.156471 461.287109,69.574654 461.812439,72.033928   C467.144043,62.352440 464.191895,53.752522 462.494415,45.225052   C462.379242,44.646435 460.332733,44.452267 458.877502,43.879242   C457.505096,42.057907 456.439667,40.436626 455.374237,38.815338   C456.387146,36.577206 457.400055,34.339081 458.412994,32.100956   C460.860657,33.530907 464.155792,34.402378 465.553955,36.523960   C467.564178,39.574345 470.591858,40.405830 473.528625,42.525631   C470.068726,51.823399 469.340851,60.555347 474.839905,68.949814   C473.124054,68.816483 471.786102,68.666687 471.072723,68.586823   C470.683350,71.618942 470.346863,74.238876 470.010406,76.858810  z"/>
<path fill="#41A6F4" opacity="1.000000" stroke="none" d=" M266.958954,137.024994   C266.442169,136.693817 265.925354,136.362640 265.324493,135.977585   C265.324493,139.623535 265.031067,143.248566 265.382721,146.809891   C266.238831,155.480301 266.359344,155.468399 257.358093,153.920288   C256.997894,147.387802 256.999329,141.490463 256.999390,135.593124   C256.999756,109.169174 257.046478,82.744995 256.911377,56.321735   C256.900543,54.201092 255.636719,52.086853 254.955170,49.969643   C255.683029,45.689407 256.410889,41.409172 257.137848,37.134197   C263.193176,36.809437 261.937561,40.915634 262.242615,44.857742   C263.282806,47.946430 264.836060,50.286274 264.883606,52.656330   C265.132660,65.068909 264.934967,77.489876 265.073761,89.905907   C265.093506,91.669205 266.103668,93.421417 266.591888,95.624382   C266.033783,101.454880 265.539215,106.839760 264.962830,113.115494   C266.337097,111.883461 266.930542,111.351456 267.854156,111.005508   C268.488129,111.865318 268.791901,112.539085 269.030212,113.559998   C269.028564,114.832947 269.092377,115.758759 269.110779,117.131142   C268.710632,122.345589 268.412903,127.118759 267.971161,131.878555   C267.810455,133.610443 267.306396,135.310440 266.958954,137.024994  z"/>
<path fill="#40ADF6" opacity="1.000000" stroke="none" d=" M254.618286,49.723785   C255.636719,52.086853 256.900543,54.201092 256.911377,56.321735   C257.046478,82.744995 256.999756,109.169174 256.999390,135.593124   C256.999329,141.490463 256.997894,147.387802 256.993896,153.762970   C251.927444,154.746246 250.539505,152.878296 250.440399,147.482712   C250.271942,138.309921 248.378876,129.178528 247.454117,120.005196   C247.075882,116.253296 247.387772,112.436012 247.289215,108.650978   C246.926224,94.713478 246.383179,80.778877 246.199188,66.839333   C246.118668,60.740105 246.741104,54.631596 247.072952,47.951424   C248.416656,48.770882 249.273102,49.293175 250.491974,50.036507   C251.120132,45.915871 251.720367,41.978428 252.320602,38.040989   C252.597565,37.984985 252.874527,37.928986 253.151489,37.872982   C253.390625,39.759808 253.673508,41.642395 253.856812,43.534626   C254.048279,45.510891 254.143890,47.496437 254.618286,49.723785  M253.133087,143.708084   C253.333054,143.826447 253.533020,143.944794 253.732971,144.063141   C253.790665,143.908295 253.896301,143.754272 253.898956,143.598495   C253.944046,140.957520 254.155228,138.303391 253.965347,135.678528   C253.737167,132.524460 253.165115,129.395294 252.741943,126.255341   C252.237885,126.339279 251.733810,126.423225 251.229736,126.507164   C251.824951,131.981277 252.420151,137.455399 253.133087,143.708084  z"/>
<path fill="#6E83ED" opacity="1.000000" stroke="none" d=" M323.852509,151.081207   C318.296661,144.511322 317.045593,136.399994 316.166748,128.326813   C313.657867,105.278893 316.016998,82.557220 321.707062,60.166393   C322.176331,58.319843 324.257355,56.882881 325.817383,55.953400   C326.030151,80.287254 326.010254,103.923309 326.008362,127.559372   C326.008209,129.647446 325.412811,132.207535 328.965820,132.329285   C329.034668,133.092880 329.078644,133.528564 328.760864,134.025208   C327.599426,137.649994 326.880615,141.234634 325.969788,144.769836   C325.417603,146.913193 324.568329,148.980011 323.852509,151.081207  z"/>
<path fill="#896DE9" opacity="1.000000" stroke="none" d=" M351.058350,38.757362   C354.864197,40.012043 358.670074,41.266727 362.737732,43.231918   C362.999695,58.346924 362.936951,72.752083 363.087433,87.155014   C363.104370,88.775238 364.326630,90.382881 364.989960,91.996353   C363.592163,96.976448 364.993073,102.521095 360.313812,106.950478   C358.324127,108.833893 359.141388,113.565346 358.434570,116.950607   C357.531616,121.275375 356.457855,125.570778 355.239014,129.816071   C355.069458,130.406616 353.651886,130.638885 352.422455,130.712387   C353.274780,128.238419 354.516693,126.089058 355.758575,123.939705   C352.827393,125.575005 351.023743,125.377251 349.754608,122.152016   C351.442200,110.778030 353.638794,99.828789 354.564392,88.773140   C355.409058,78.683876 354.955627,68.478500 354.849426,58.326653   C354.836395,57.079205 355.723358,53.757160 351.899353,54.770164   C351.508240,49.169281 351.283295,43.963322 351.058350,38.757362  z"/>
<path fill="#F30FD7" opacity="1.000000" stroke="none" d=" M511.767426,51.104523   C512.715149,52.156048 513.910828,53.287422 513.916077,54.424286   C514.023193,77.664131 513.934326,100.904816 514.021729,124.144821   C514.057434,133.641891 514.416138,143.137756 514.973999,152.909943   C509.910156,156.066849 508.097717,155.400803 508.222961,149.705994   C508.356415,143.637634 506.032593,137.304108 509.731506,131.457077   C510.258820,130.623535 509.901672,129.171097 509.812378,128.016052   C508.974640,117.182640 508.106049,106.351608 507.197876,94.908424   C506.514221,96.614273 505.954254,98.011574 504.797668,99.612549   C503.801208,91.586601 503.401367,83.356972 503.001526,75.127350   C503.692657,73.706123 504.661774,72.352432 505.026306,70.851868   C506.520477,64.701378 507.789917,58.496498 509.253754,52.338184   C509.462616,51.459511 509.142975,48.471157 511.767426,51.104523  z"/>
<path fill="#B746E1" opacity="1.000000" stroke="none" d=" M429.815613,98.990936   C429.232727,101.155037 428.765991,103.359009 428.040192,105.474068   C426.894165,108.813698 425.326965,112.024734 424.382111,115.413986   C422.691559,121.478096 421.331604,127.634361 419.466492,133.678040   C418.999725,132.293839 418.899963,130.983673 418.811890,129.826904   C417.336121,129.561768 415.360840,129.206909 413.520569,128.471008   C415.959686,115.603477 418.982086,103.195023 420.349518,90.606796   C421.526459,79.772003 420.877136,68.732018 420.848969,57.783234   C420.846039,56.639801 421.857178,53.203796 417.869446,54.793533   C417.380829,49.256458 417.222046,43.990845 417.063232,38.725231   C420.565521,39.871292 424.067749,41.017361 427.811432,42.874226   C428.034821,45.573219 428.037842,47.561863 427.995422,49.549534   C427.695740,63.591717 427.250061,77.633316 427.210907,91.676109   C427.204132,94.111946 428.904022,96.552536 429.815613,98.990936  z"/>
<path fill="#CD38DF" opacity="1.000000" stroke="none" d=" M458.808533,143.628708   C458.540894,145.499939 458.273254,147.371170 458.010254,149.655701   C457.877411,150.163025 457.752441,150.303513 457.600647,150.344437   C449.172485,152.616150 449.193390,152.614838 448.996704,144.007324   C448.246613,111.176971 449.273743,78.438026 454.009827,45.889046   C454.320892,43.751091 454.736145,41.628292 455.238586,39.156895   C456.439667,40.436626 457.505096,42.057907 458.795959,44.248764   C454.195251,57.594269 453.210449,70.922630 453.332306,84.411621   C454.859314,80.861961 456.386322,77.312294 457.913330,73.762627   C457.629883,83.613106 457.346436,93.463593 456.659973,103.969414   C456.397949,116.988869 454.176239,129.411209 457.151245,141.695236   C457.329285,142.430389 458.239197,142.988312 458.808533,143.628708  z"/>
<path fill="#737CEC" opacity="1.000000" stroke="none" d=" M328.940918,132.001373   C325.412811,132.207535 326.008209,129.647446 326.008362,127.559372   C326.010254,103.923309 326.030151,80.287254 326.081055,56.155060   C332.762115,57.730930 332.287170,51.560856 335.022095,48.458378   C336.057526,50.683315 336.889282,52.895206 336.938538,55.124378   C337.169586,65.586472 337.185516,76.053314 337.256897,86.887650   C336.033508,92.050293 335.384857,97.075325 333.498566,101.582390   C330.740021,108.173447 333.275360,112.999779 337.777252,118.359665   C334.444214,119.122314 331.480896,119.800377 328.180878,120.555473   C328.428619,124.286453 328.684753,128.143921 328.940918,132.001373  z"/>
<path fill="#2A4D9B" opacity="1.000000" stroke="none" d=" M77.516190,145.220718   C75.737274,140.731949 73.958359,136.243164 72.569954,131.264221   C73.305832,129.908630 73.951324,129.043839 73.953033,128.177750   C74.007362,100.614952 74.021774,73.051956 73.922646,45.489422   C73.918465,44.325665 72.771629,43.166019 72.157104,42.004459   C73.847397,37.090397 75.537689,32.176338 77.858566,27.373173   C78.659843,39.085796 78.720848,50.691063 79.095306,62.286209   C79.168762,64.560898 80.454613,66.796440 81.229156,69.514221   C81.215607,80.977722 81.154198,91.977020 80.789604,103.218140   C79.991356,106.011879 79.113525,108.557159 79.069191,111.116882   C78.900543,120.854736 79.069153,130.598190 78.934395,140.337097   C78.911781,141.971191 78.011131,143.593155 77.516190,145.220718  z"/>
<path fill="#147DC5" opacity="1.000000" stroke="none" d=" M107.838165,142.076920   C106.770508,140.190155 105.702843,138.303375 104.040146,136.087311   C102.817200,135.434555 102.189301,135.111099 101.695374,134.490906   C102.140182,132.999344 102.451019,131.804520 102.933578,130.174255   C103.403595,127.959122 103.957703,126.180000 103.961670,124.399651   C104.018158,99.079163 104.025238,73.758446 103.950317,48.438065   C103.944611,46.509251 103.230560,44.582527 102.858444,42.304260   C102.487343,40.675652 102.103561,39.397614 102.015388,38.004902   C102.870781,37.593735 103.430557,37.297241 103.990334,37.000748   C105.379272,34.920727 106.768219,32.840702 108.535881,30.999798   C109.276131,33.183083 109.949051,35.126640 109.952827,37.071507   C110.017517,70.378494 110.031197,103.685760 109.907692,136.992432   C109.901398,138.689789 108.558670,140.382202 107.838165,142.076920  z"/>
<path fill="#5793F1" opacity="1.000000" stroke="none" d=" M288.100494,26.764294   C290.937561,28.244024 293.774628,29.723755 296.829102,31.936834   C297.031006,49.262093 296.986206,65.854118 297.048828,82.445732   C297.054626,83.982750 297.743378,85.517189 298.114990,87.052826   C295.634155,92.583611 293.153320,98.114395 290.095551,103.614777   C289.012421,101.046150 288.142212,98.518288 288.069641,95.967728   C287.868591,88.901588 288.086731,81.824127 287.935120,74.755508   C287.900055,73.119072 287.050659,71.500092 286.664490,69.481277   C288.042633,62.437859 289.882111,55.828640 290.399719,49.117474   C290.675934,45.536236 291.893066,41.019806 287.846008,37.653595   C287.823822,33.774757 287.962158,30.269526 288.100494,26.764294  z"/>
<path fill="#BE3EE0" opacity="1.000000" stroke="none" d=" M429.909424,98.608261   C428.904022,96.552536 427.204132,94.111946 427.210907,91.676109   C427.250061,77.633316 427.695740,63.591717 427.995422,49.549534   C428.037842,47.561863 428.034821,45.573219 428.091187,43.082706   C434.576752,44.565697 436.888062,49.717697 437.878082,55.681248   C440.557220,71.820221 440.730804,87.985451 437.678314,104.561020   C437.018768,104.956856 436.687653,104.948067 436.356323,104.947182   C436.356323,99.980270 436.356323,95.013367 436.356323,89.986122   C431.276611,90.962715 430.616791,94.577866 429.909424,98.608261  z"/>
<path fill="#A550E4" opacity="1.000000" stroke="none" d=" M394.990204,119.964470   C394.994171,99.017220 394.998169,78.069969 395.003326,56.670059   C396.194092,55.042648 397.643768,54.033302 398.518494,52.658241   C400.264587,49.913284 401.695312,46.967678 403.727631,44.309769   C404.466003,48.766113 404.809509,53.014503 404.984192,57.269821   C405.362366,66.481796 405.654083,75.697319 405.797119,85.213799   C404.732819,86.809570 403.503204,87.989624 403.039795,89.418221   C401.805573,93.222908 401.454254,97.401108 399.745972,100.946060   C396.581360,107.513115 398.360870,112.785995 403.451447,118.625092   C400.218842,119.136803 397.604523,119.550636 394.990204,119.964470  z"/>
<path fill="#2E4393" opacity="1.000000" stroke="none" d=" M72.000931,42.359386   C72.771629,43.166019 73.918465,44.325665 73.922646,45.489422   C74.021774,73.051956 74.007362,100.614952 73.953033,128.177750   C73.951324,129.043839 73.305832,129.908630 72.580818,130.884384   C70.626472,122.533562 68.431953,114.132851 67.599396,105.599274   C65.536140,84.451462 66.273987,63.394199 72.000931,42.359386  z"/>
<path fill="#7D75EB" opacity="1.000000" stroke="none" d=" M337.278290,86.518456   C337.185516,76.053314 337.169586,65.586472 336.938538,55.124378   C336.889282,52.895206 336.057526,50.683315 335.280121,48.224228   C339.147247,39.463463 342.922485,37.092178 350.748016,38.514668   C351.283295,43.963322 351.508240,49.169281 351.824829,55.111401   C348.668396,64.270119 345.579559,72.760124 342.061798,81.068481   C341.167145,83.181473 338.909607,84.717384 337.278290,86.518456  z"/>
<path fill="#DD24DB" opacity="1.000000" stroke="none" d=" M470.360168,77.107216   C470.346863,74.238876 470.683350,71.618942 471.072723,68.586823   C471.786102,68.666687 473.124054,68.816483 475.056183,69.231888   C476.034729,70.625298 476.419098,71.753082 476.803497,72.880867   C477.292511,64.612778 476.725098,56.725441 476.525543,48.828812   C476.494080,47.583424 478.126007,46.295998 478.988892,45.028008   C480.591980,49.774292 482.195068,54.520584 483.469421,59.711380   C482.396515,63.189121 481.060608,66.216957 481.032867,69.256729   C480.977112,75.363327 481.875458,81.474442 481.925873,87.587448   C481.969360,92.863213 480.550812,98.269615 481.321655,103.385773   C482.021545,108.031128 482.954803,112.332764 480.856781,116.737793   C479.886688,115.086967 478.425537,113.546364 478.026215,111.767410   C475.457916,100.325897 473.122101,88.832184 470.360168,77.107216  z"/>
<path fill="#8F66E8" opacity="1.000000" stroke="none" d=" M365.288849,92.020859   C364.326630,90.382881 363.104370,88.775238 363.087433,87.155014   C362.936951,72.752083 362.999695,58.346924 362.998962,43.474209   C365.571533,45.800426 369.599060,48.205814 370.468475,51.455982   C374.436676,66.290321 374.784485,81.462631 372.829529,96.646362   C372.388367,96.748535 371.947205,96.850716 371.506042,96.952888   C370.867462,94.608498 370.228882,92.264107 369.576904,89.870476   C368.302643,90.565193 366.945190,91.305283 365.288849,92.020859  z"/>
<path fill="#E31AD9" opacity="1.000000" stroke="none" d=" M481.206604,116.837189   C482.954803,112.332764 482.021545,108.031128 481.321655,103.385773   C480.550812,98.269615 481.969360,92.863213 481.925873,87.587448   C481.875458,81.474442 480.977112,75.363327 481.032867,69.256729   C481.060608,66.216957 482.396515,63.189121 483.482666,60.083717   C485.968811,68.192924 488.112915,76.374298 490.876404,85.022644   C491.664551,95.623550 491.833344,105.757500 492.002106,115.891449   C488.520203,116.239822 485.038330,116.588203 481.206604,116.837189  z"/>
<path fill="#1386CC" opacity="1.000000" stroke="none" d=" M107.921478,142.408508   C108.558670,140.382202 109.901398,138.689789 109.907692,136.992432   C110.031197,103.685760 110.017517,70.378494 109.952827,37.071507   C109.949051,35.126640 109.276131,33.183083 108.811081,30.776386   C110.583801,28.653635 112.460037,26.993416 114.666527,25.762573   C114.997803,34.973797 114.912285,43.757324 115.083267,52.535854   C115.112457,54.034855 116.238564,55.512493 116.801346,57.362427   C112.579323,67.545235 111.791618,77.932564 112.113434,88.380287   C112.344887,95.894730 113.373444,103.384613 113.879684,111.277359   C113.475395,113.437347 113.045044,115.204018 113.032188,116.973724   C112.959312,127.008614 112.986336,137.044220 112.979355,147.079590   C111.321167,145.633102 109.662979,144.186600 107.921478,142.408508  z"/>
<path fill="#EA15D8" opacity="1.000000" stroke="none" d=" M492.423767,115.948929   C491.833344,105.757500 491.664551,95.623550 491.174744,85.206589   C492.403046,81.579361 493.952393,78.235153 495.501740,74.890938   C495.955231,75.087791 496.408752,75.284637 496.862274,75.481491   C496.984192,77.104584 497.106140,78.727676 497.228088,80.350769   C497.483704,80.450981 497.739319,80.551193 497.994965,80.651405   C499.095825,77.913536 500.196686,75.175659 501.487671,71.964874   C501.879700,73.129982 502.150208,73.934013 502.711121,74.932693   C503.401367,83.356972 503.801208,91.586601 504.597107,99.906998   C504.200928,102.980270 503.305389,105.939896 502.639099,108.950272   C501.460693,114.274506 498.349609,116.762215 492.423767,115.948929  z"/>
<path fill="#AC4BE3" opacity="1.000000" stroke="none" d=" M405.981140,84.911392   C405.654083,75.697319 405.362366,66.481796 404.984192,57.269821   C404.809509,53.014503 404.466003,48.766113 404.014862,44.109936   C406.668915,38.736443 410.795135,36.744129 416.749359,38.487938   C417.222046,43.990845 417.380829,49.256458 417.769531,55.142578   C415.601166,61.857491 413.257935,67.974358 410.784027,74.037926   C409.287811,77.705139 407.588959,81.289696 405.981140,84.911392  z"/>
<path fill="#5F90F0" opacity="1.000000" stroke="none" d=" M298.375305,86.819931   C297.743378,85.517189 297.054626,83.982750 297.048828,82.445732   C296.986206,65.854118 297.031006,49.262093 297.082520,32.176949   C306.466064,37.421001 307.531189,47.053574 306.402893,56.098366   C305.114899,66.423561 301.333496,76.437721 298.375305,86.819931  z"/>
<path fill="#1E6AB4" opacity="1.000000" stroke="none" d=" M45.021065,129.991867   C43.728004,128.546097 42.434940,127.100334 41.451885,125.242889   C42.174721,123.506905 42.943333,122.183731 42.947510,120.858147   C43.020729,97.599525 43.029713,74.340492 42.926186,51.082104   C42.920135,49.723198 41.840149,48.369076 41.259941,47.012726   C42.606411,45.353645 43.952881,43.694565 45.761963,42.286003   C46.483601,47.577858 46.614590,52.631065 47.080299,57.653236   C47.218555,59.144211 48.297977,60.547909 48.946140,61.991600   C45.687004,76.938263 45.356434,91.920830 48.066406,107.624649   C47.492760,113.831055 47.385277,119.369057 46.922588,124.877220   C46.775940,126.623032 45.681675,128.289230 45.021065,129.991867  z"/>
<path fill="#0BDAFE" opacity="1.000000" stroke="none" d=" M188.112732,121.049751   C188.301376,121.483826 188.490021,121.917900 188.388916,122.634109   C187.576965,123.270309 187.054749,123.624359 186.366821,124.251213   C186.132324,125.582886 186.063538,126.641769 185.679276,127.860840   C181.020401,133.738632 178.777512,140.057770 179.183228,147.135376   C179.626480,147.288864 180.069733,147.442368 180.512985,147.595856   C181.810196,144.049973 183.107407,140.504105 184.593079,137.366165   C185.339111,139.493378 186.579895,141.329269 186.310501,142.907364   C185.768463,146.082687 188.004318,150.308624 183.384430,152.212402   C173.222397,151.326462 170.064087,147.820099 173.024368,138.428467   C175.985977,129.032562 180.411865,120.098221 184.637054,111.119026   C185.386459,113.024101 185.533249,114.821243 186.049866,116.504913   C186.533875,118.082336 187.409470,119.539604 188.112732,121.049751  z"/>
<path fill="#1B76BE" opacity="1.000000" stroke="none" d=" M151.058899,72.046112   C153.766571,81.639977 153.831238,90.858978 150.834763,99.947723   C150.308350,101.544426 148.404465,102.686989 147.136719,104.039276   C146.001770,102.721695 144.304413,101.581421 143.823959,100.057487   C140.902435,90.790794 140.800232,81.390213 143.673416,72.097069   C144.198227,70.399643 145.953705,69.082703 147.141083,67.590126   C148.413086,68.945305 149.685089,70.300491 151.058899,72.046112  z"/>
<path fill="#1DCBFB" opacity="1.000000" stroke="none" d=" M195.983826,89.992836   C199.807739,83.127075 203.631638,76.261307 207.884384,69.560707   C208.542587,72.630180 208.484192,75.597305 209.099823,78.417305   C209.528778,80.382271 210.882156,82.145439 211.822586,83.998749   C209.090790,90.453262 206.359009,96.907784 203.769318,103.819939   C203.911407,104.277573 203.923660,104.395210 203.530167,104.444191   C203.024673,104.971245 202.912689,105.449310 202.831177,105.877396   C202.861664,105.827408 202.751724,105.787109 202.439331,105.884048   C201.614410,106.953514 201.101868,107.926048 200.400757,109.018845   C200.018509,109.387138 199.936417,109.667816 199.965897,109.981125   C198.703506,112.102798 197.441116,114.224480 195.842285,116.749863   C195.323563,117.113190 195.141281,117.072800 194.701416,116.705475   C195.455475,114.180710 196.743637,112.062866 197.408386,109.764702   C198.228241,106.930252 198.529297,103.945740 198.757904,100.753418   C197.635452,96.984787 196.809631,93.488815 195.983826,89.992836  z"/>
<path fill="#205EAA" opacity="1.000000" stroke="none" d=" M41.012745,47.233105   C41.840149,48.369076 42.920135,49.723198 42.926186,51.082104   C43.029713,74.340492 43.020729,97.599525 42.947510,120.858147   C42.943333,122.183731 42.174721,123.506905 41.363174,124.924324   C40.242603,124.129326 39.520748,123.241219 38.835033,121.544411   C38.914165,99.342659 38.980625,77.949570 38.952480,56.556599   C38.950390,54.965385 38.269592,53.375061 37.904312,51.784325   C38.858059,50.340710 39.811802,48.897099 41.012745,47.233105  z"/>
<path fill="#46A3F4" opacity="1.000000" stroke="none" d=" M266.655426,95.178764   C266.103668,93.421417 265.093506,91.669205 265.073761,89.905907   C264.934967,77.489876 265.132660,65.068909 264.883606,52.656330   C264.836060,50.286274 263.282806,47.946430 262.213013,45.294212   C264.360413,41.526367 266.719025,38.056965 269.453491,34.850311   C270.219604,44.351933 270.539246,53.594791 271.060883,62.826237   C271.162750,64.628922 272.048828,66.387291 272.460266,68.555519   C270.450043,77.689545 268.552734,86.434151 266.655426,95.178764  z"/>
<path fill="#4D9FF3" opacity="1.000000" stroke="none" d=" M267.117371,137.318481   C267.306396,135.310440 267.810455,133.610443 267.971161,131.878555   C268.412903,127.118759 268.710632,122.345589 269.388916,117.333267   C271.680817,120.560760 273.258667,118.319778 274.914551,117.166321   C275.674500,119.411491 276.401245,121.225899 277.127991,123.040298   C278.232727,125.490242 279.337433,127.940178 280.230438,130.702194   C279.519196,131.601883 278.543793,132.665588 278.587738,132.709488   C282.863251,136.982880 280.443146,142.350082 280.888489,147.203140   C280.968018,148.069717 279.670624,149.062683 279.009003,149.997284   C275.097931,145.868851 271.186859,141.740402 267.117371,137.318481  z"/>
<path fill="#B256E4" opacity="1.000000" stroke="none" d=" M413.385559,128.852051   C415.360840,129.206909 417.336121,129.561768 418.811890,129.826904   C418.899963,130.983673 418.999725,132.293839 419.202209,133.910706   C419.304932,134.217438 419.220703,134.181229 418.964783,134.211533   C418.726776,134.802887 418.744720,135.363937 418.762695,135.924988   C418.305054,138.407700 417.948181,140.914429 417.363403,143.366821   C416.683167,146.219467 416.598938,150.664993 414.847443,151.514343   C411.007172,153.376617 406.278320,153.406525 401.460571,154.173004   C400.388611,151.007843 399.649170,147.870041 399.229431,144.690063   C399.120361,143.863861 400.010376,142.905823 401.045349,142.224915   C402.166138,143.443985 402.683014,144.446457 403.951752,146.907074   C407.442963,140.225342 410.414246,134.538696 413.385559,128.852051  z"/>
<path fill="#5398F2" opacity="1.000000" stroke="none" d=" M286.575989,69.873085   C287.050659,71.500092 287.900055,73.119072 287.935120,74.755508   C288.086731,81.824127 287.868591,88.901588 288.069641,95.967728   C288.142212,98.518288 289.012421,101.046150 289.827209,103.829536   C287.653625,108.331772 285.171448,112.588852 282.224487,116.634132   C281.506470,109.577293 281.396759,102.722107 280.914154,95.893272   C280.765747,93.793457 279.597778,91.765709 278.962280,89.362427   C281.543945,82.637627 284.059967,76.255363 286.575989,69.873085  z"/>
<path fill="#28BEF9" opacity="1.000000" stroke="none" d=" M217.885742,49.946289   C220.049789,44.295231 222.305878,38.676212 224.294296,32.964027   C224.658905,31.916605 223.935837,30.490566 223.358917,28.680565   C223.000366,25.089100 222.997681,22.056362 222.995010,19.023624   C224.594879,20.079525 226.194733,21.135426 227.915222,22.929043   C228.024750,33.114513 227.978394,42.562542 228.053329,52.009613   C228.061447,53.032784 228.771622,54.050385 229.156143,55.070572   C226.337753,59.357498 223.519363,63.644421 220.351471,67.616302   C219.928879,64.938538 220.047256,62.550392 219.737595,60.219097   C219.279938,56.773624 218.518066,53.368557 217.885742,49.946289  z"/>
<path fill="#14D3FD" opacity="1.000000" stroke="none" d=" M183.664612,152.492371   C188.004318,150.308624 185.768463,146.082687 186.310501,142.907364   C186.579895,141.329269 185.339111,139.493378 184.685806,137.054504   C185.058319,133.456802 185.526535,130.578720 185.994751,127.700645   C186.063538,126.641769 186.132324,125.582886 186.747711,124.338280   C187.814560,124.134621 188.334808,124.116692 188.855042,124.098770   C191.502335,123.732864 194.149628,123.366951 196.791641,123.001778   C194.051910,130.017517 191.208878,137.297806 188.365845,144.578110   C188.729431,144.842072 189.093018,145.106033 189.456604,145.369995   C191.345169,144.573837 193.233734,143.777695 195.780594,143.087265   C196.948608,144.024490 197.458344,144.855988 197.968094,145.687469   C196.103683,146.819687 194.239273,147.951889 192.374863,149.084106   C192.448914,149.354599 192.522980,149.625092 192.597031,149.895584   C194.101273,149.580566 195.605515,149.265564 197.775330,149.163239   C198.636566,150.644562 198.832260,151.913177 199.027939,153.181793   C193.913528,156.239075 188.905640,155.372406 183.664612,152.492371  z"/>
<path fill="#4B9FF3" opacity="1.000000" stroke="none" d=" M272.573212,68.166092   C272.048828,66.387291 271.162750,64.628922 271.060883,62.826237   C270.539246,53.594791 270.219604,44.351933 269.731140,34.618530   C272.188385,31.427013 274.743774,28.730028 277.646606,26.456364   C277.996277,32.919422 277.861176,38.964699 278.104095,44.994743   C278.160004,46.382706 279.512970,47.718422 280.170105,49.429577   C277.571838,55.909348 275.072510,62.037720 272.573212,68.166092  z"/>
<path fill="#11AEEC" opacity="1.000000" stroke="none" d=" M132.562454,51.763885   C137.316940,72.818420 137.103363,93.980080 133.489288,115.532913   C131.976700,114.889374 130.905289,113.918472 129.878845,112.546967   C134.427902,94.021980 134.768906,75.990982 129.109253,58.021057   C130.525330,55.880386 131.543884,53.822136 132.562454,51.763885  z"/>
<path fill="#2754A1" opacity="1.000000" stroke="none" d=" M81.181305,69.050034   C80.454613,66.796440 79.168762,64.560898 79.095306,62.286209   C78.720848,50.691063 78.659843,39.085796 78.167252,27.201952   C79.074753,25.066603 80.304153,23.213371 82.212646,21.290960   C83.261642,22.717899 83.917740,24.207747 83.950668,25.711246   C84.076553,31.457182 83.857811,37.213722 84.105179,42.951756   C84.165695,44.355671 85.507065,45.704369 86.223640,47.469757   C84.518921,54.924057 82.850113,61.987045 81.181305,69.050034  z"/>
<path fill="#5899F2" opacity="1.000000" stroke="none" d=" M279.196381,150.276672   C279.670624,149.062683 280.968018,148.069717 280.888489,147.203140   C280.443146,142.350082 282.863251,136.982880 278.587738,132.709488   C278.543793,132.665588 279.519196,131.601883 280.350891,131.006241   C286.520355,137.235992 292.357635,143.473785 298.197052,149.709671   C291.515411,155.030518 284.003601,155.369202 279.196381,150.276672  z"/>
<path fill="#2754A1" opacity="1.000000" stroke="none" d=" M77.645859,145.544464   C78.011131,143.593155 78.911781,141.971191 78.934395,140.337097   C79.069153,130.598190 78.900543,120.854736 79.069191,111.116882   C79.113525,108.557159 79.991356,106.011879 80.979126,103.558594   C82.904556,110.437416 84.337288,117.217606 85.393143,124.114159   C84.677719,131.514282 84.403557,138.801987 83.958931,146.079254   C83.835449,148.100372 83.206566,150.090637 82.809540,152.095047   C81.131538,150.019424 79.453537,147.943817 77.645859,145.544464  z"/>
<path fill="#22C4FA" opacity="1.000000" stroke="none" d=" M217.620117,50.165413   C218.518066,53.368557 219.279938,56.773624 219.737595,60.219097   C220.047256,62.550392 219.928879,64.938538 220.018951,67.708145   C217.405167,73.201180 214.774384,78.287308 211.983093,83.686096   C210.882156,82.145439 209.528778,80.382271 209.099823,78.417305   C208.484192,75.597305 208.542587,72.630180 208.147003,69.342865   C211.105347,62.768093 214.229919,56.576313 217.620117,50.165413  z"/>
<path fill="#284D9B" opacity="1.000000" stroke="none" d=" M30.626595,65.834969   C31.848669,62.944191 33.070744,60.053413 34.753014,57.348713   C35.462067,58.317966 35.925789,59.100479 35.928188,59.884411   C35.980583,76.977654 36.013935,94.071266 35.906620,111.163887   C35.900639,112.116501 34.650452,113.061295 33.979382,114.009727   C32.893154,111.647667 31.806929,109.285606 31.001465,106.306541   C31.508993,105.086227 31.931139,104.483734 31.933640,103.879494   C31.982048,92.182655 32.014183,80.485397 31.931547,68.789047   C31.924570,67.801331 31.081329,66.819519 30.626595,65.834969  z"/>
<path fill="#4D9DF3" opacity="1.000000" stroke="none" d=" M278.896637,89.704971   C279.597778,91.765709 280.765747,93.793457 280.914154,95.893272   C281.396759,102.722107 281.506470,109.577293 281.934143,116.823578   C280.645233,119.068207 279.181885,120.911606 277.423279,122.897659   C276.401245,121.225899 275.674500,119.411491 274.963623,116.819260   C276.039795,113.542412 277.100098,111.043373 278.669983,107.343246   C274.529144,109.881828 271.812408,111.547340 269.095673,113.212852   C268.791901,112.539085 268.488129,111.865318 267.981201,110.667160   C271.484283,103.330154 275.190460,96.517563 278.896637,89.704971  z"/>
<path fill="#2455A2" opacity="1.000000" stroke="none" d=" M34.004463,114.361008   C34.650452,113.061295 35.900639,112.116501 35.906620,111.163887   C36.013935,94.071266 35.980583,76.977654 35.928188,59.884411   C35.925789,59.100479 35.462067,58.317966 35.037613,57.132782   C35.685791,55.195137 36.509567,53.659496 37.618828,51.954090   C38.269592,53.375061 38.950390,54.965385 38.952480,56.556599   C38.980625,77.949570 38.914165,99.342659 38.772209,121.259926   C37.125351,119.426857 35.577450,117.069580 34.004463,114.361008  z"/>
<path fill="#887CEC" opacity="1.000000" stroke="none" d=" M349.709686,122.530388   C351.023743,125.377251 352.827393,125.575005 355.758575,123.939705   C354.516693,126.089058 353.274780,128.238419 352.044189,130.771698   C351.368225,134.638763 350.464874,138.097061 350.061249,141.612747   C349.730194,144.496124 349.993744,147.447769 349.993744,151.323227   C348.389038,151.853302 346.024384,152.634415 343.328949,152.935974   C343.223267,150.508072 343.847809,148.496536 343.552643,146.630478   C343.295715,145.006210 342.000153,143.546234 341.234924,141.675629   C344.107391,135.068527 346.908539,128.799469 349.709686,122.530388  z"/>
<path fill="transparent" opacity="1.000000" stroke="none" d=" M195.712708,90.203072   C196.809631,93.488815 197.635452,96.984787 198.572693,101.037979   C194.474030,106.808487 191.144028,112.419312 190.676315,119.323067   C190.040909,119.872383 189.405487,120.421700 188.441406,121.010384   C187.409470,119.539604 186.533875,118.082336 186.049866,116.504913   C185.533249,114.821243 185.386459,113.024101 184.896423,110.871170   C188.290283,103.781670 191.865952,97.097488 195.712708,90.203072  z"/>
<path fill="#17CDFC" opacity="1.000000" stroke="none" d=" M193.879211,23.636469   C197.264999,22.252457 200.650787,20.868443 204.581116,19.879532   C205.442795,24.916542 205.759903,29.558453 206.077026,34.200363   C202.288635,36.084030 198.500229,37.967697 194.355301,39.398056   C193.958908,33.841988 193.919052,28.739229 193.879211,23.636469  z"/>
<path fill="#2DBAF8" opacity="1.000000" stroke="none" d=" M229.418945,54.844032   C228.771622,54.050385 228.061447,53.032784 228.053329,52.009613   C227.978394,42.562542 228.024750,33.114513 228.062698,23.217239   C228.236572,22.843924 228.409180,22.892241 228.526993,23.000284   C238.432098,32.084675 238.495789,32.399384 233.464600,44.924091   C232.171783,48.142426 230.941010,51.385689 229.418945,54.844032  z"/>
<path fill="#519AF2" opacity="1.000000" stroke="none" d=" M280.269043,49.078178   C279.512970,47.718422 278.160004,46.382706 278.104095,44.994743   C277.861176,38.964699 277.996277,32.919422 277.988831,26.405966   C281.289062,23.425529 284.473541,24.606943 287.871704,26.506573   C287.962158,30.269526 287.823822,33.774757 287.694244,37.951492   C285.225006,42.108059 282.747040,45.593117 280.269043,49.078178  z"/>
<path fill="#245DA9" opacity="1.000000" stroke="none" d=" M86.259544,47.078449   C85.507065,45.704369 84.165695,44.355671 84.105179,42.951756   C83.857811,37.213722 84.076553,31.457182 83.950668,25.711246   C83.917740,24.207747 83.261642,22.717899 82.503899,21.129349   C84.486702,19.999586 86.857353,18.962255 89.613770,18.478706   C90.000130,24.094088 89.869614,29.161465 90.092079,34.213295   C90.148788,35.501057 91.324905,36.739525 91.842239,38.304432   C89.885040,41.431629 88.072296,44.255039 86.259544,47.078449  z"/>
<path fill="#314795" opacity="1.000000" stroke="none" d=" M30.371033,66.094803   C31.081329,66.819519 31.924570,67.801331 31.931547,68.789047   C32.014183,80.485397 31.982048,92.182655 31.933640,103.879494   C31.931139,104.483734 31.508993,105.086227 30.914181,105.948105   C25.756289,92.972870 26.026749,79.684387 30.371033,66.094803  z"/>
<path fill="#10D4FD" opacity="1.000000" stroke="none" d=" M193.534882,23.753572   C193.919052,28.739229 193.958908,33.841988 193.997574,39.402672   C190.133682,38.982281 186.139221,38.468498 182.442032,37.132240   C177.946350,35.507397 177.739792,33.300732 181.675034,30.662815   C185.370605,28.185545 189.341064,26.118320 193.534882,23.753572  z"/>
<path fill="#1FC6FA" opacity="1.000000" stroke="none" d=" M206.445404,34.135536   C205.759903,29.558453 205.442795,24.916542 204.972672,19.833748   C208.588867,18.903078 212.358047,18.413292 216.563568,18.447824   C217.053177,22.807642 217.106461,26.643137 217.159744,30.478634   C213.711090,31.675993 210.262451,32.873352 206.445404,34.135536  z"/>
<path fill="#0F8FD4" opacity="1.000000" stroke="none" d=" M116.857925,57.000000   C116.238564,55.512493 115.112457,54.034855 115.083267,52.535854   C114.912285,43.757324 114.997803,34.973797 114.995316,25.743023   C116.885727,25.644545 118.777618,25.994999 120.569870,26.934975   C120.364197,35.797531 120.258148,44.070572 120.072250,52.649426   C118.947571,54.303493 117.902748,55.651749 116.857925,57.000000  z"/>
<path fill="transparent" opacity="1.000000" stroke="none" d=" M478.951965,44.686928   C478.126007,46.295998 476.494080,47.583424 476.525543,48.828812   C476.725098,56.725441 477.292511,64.612778 476.803497,72.880867   C476.419098,71.753082 476.034729,70.625298 475.434021,69.215431   C469.340851,60.555347 470.068726,51.823399 473.876709,42.565018   C474.087250,41.253551 474.163910,40.281204 474.444214,39.371635   C474.552917,39.019001 475.122437,38.808411 475.464142,38.546833   C476.650726,40.540787 477.782898,42.443314 478.951965,44.686928  z"/>
<path fill="#235CA8" opacity="1.000000" stroke="none" d=" M82.964714,152.414398   C83.206566,150.090637 83.835449,148.100372 83.958931,146.079254   C84.403557,138.801987 84.677719,131.514282 85.572327,124.430344   C87.416718,127.426277 88.705063,130.222397 89.939003,133.432404   C89.587334,140.833450 89.290077,147.820587 88.992813,154.807739   C87.035172,154.116409 85.077530,153.425079 82.964714,152.414398  z"/>
<path fill="#0E90D5" opacity="1.000000" stroke="none" d=" M120.999733,145.932190   C119.573067,146.714981 118.146393,147.497757 116.359726,147.690598   C115.999855,138.885895 115.910461,130.669281 116.081841,122.458107   C116.113068,120.962181 117.209007,119.488487 118.041870,118.225510   C119.179802,119.325745 120.089317,120.205025 120.999374,121.547668   C120.999870,129.984756 120.999802,137.958466 120.999733,145.932190  z"/>
<path fill="#0B9ADD" opacity="1.000000" stroke="none" d=" M121.345642,145.952820   C120.999802,137.958466 120.999870,129.984756 121.380699,121.521004   C122.777405,120.990402 123.793335,120.949829 125.215561,121.008125   C126.082375,123.905586 126.420753,126.732063 127.051155,129.491852   C127.405624,131.043655 128.242264,132.485336 128.861679,133.976624   C126.471634,137.975571 124.081589,141.974518 121.345642,145.952820  z"/>
<path fill="#737CEC" opacity="1.000000" stroke="none" d=" M323.994019,151.411560   C324.568329,148.980011 325.417603,146.913193 325.969788,144.769836   C326.880615,141.234634 327.599426,137.649994 329.052460,134.217773   C330.209808,136.001892 330.713837,137.654419 330.939667,138.394882   C331.631470,138.021927 332.435211,137.588608 333.238922,137.155273   C333.545105,138.000992 333.851349,138.846725 334.004456,140.023834   C333.446198,141.649307 332.629242,142.971588 332.715363,144.232147   C332.945435,147.599472 333.563416,150.940292 334.027222,154.291656   C330.128632,155.774658 326.694580,155.455521 323.994019,151.411560  M332.412659,148.482971   C332.412659,148.482971 332.523071,148.417221 332.412659,148.482971  z"/>
<path fill="#0A97DB" opacity="1.000000" stroke="none" d=" M120.152100,52.343609   C120.258148,44.070572 120.364197,35.797531 120.782959,27.237902   C122.724106,28.960674 124.352539,30.970037 126.013901,33.748474   C125.613266,40.541691 125.179710,46.565834 124.373657,52.476627   C122.718147,52.356720 121.435127,52.350166 120.152100,52.343609  z"/>
<path fill="#0FA3E4" opacity="1.000000" stroke="none" d=" M124.746155,52.589981   C125.179710,46.565834 125.613266,40.541691 126.094635,34.066776   C128.239563,39.394238 130.336685,45.172470 132.498123,51.357292   C131.543884,53.822136 130.525330,55.880386 128.850769,57.835197   C127.045235,56.017834 125.895691,54.303905 124.746155,52.589981  z"/>
<path fill="#2266B0" opacity="1.000000" stroke="none" d=" M89.347443,154.861069   C89.290077,147.820587 89.587334,140.833450 90.229355,133.596954   C92.048332,134.605576 93.522545,135.863556 94.888229,137.362442   C95.156731,142.058304 95.533760,146.513229 95.910789,150.968170   C93.841217,152.283569 91.771652,153.598984 89.347443,154.861069  z"/>
<path fill="#118AD0" opacity="1.000000" stroke="none" d=" M117.813446,118.004539   C117.209007,119.488487 116.113068,120.962181 116.081841,122.458107   C115.910461,130.669281 115.999855,138.885895 115.999557,147.572540   C115.136940,147.891373 114.274483,147.738312 113.195694,147.332428   C112.986336,137.044220 112.959312,127.008614 113.032188,116.973724   C113.045044,115.204018 113.475395,113.437347 114.195175,111.419174   C115.722763,113.447563 116.768105,115.726051 117.813446,118.004539  z"/>
<path fill="#1B76BE" opacity="1.000000" stroke="none" d=" M49.152966,61.691841   C48.297977,60.547909 47.218555,59.144211 47.080299,57.653236   C46.614590,52.631065 46.483601,47.577858 46.053978,42.132774   C47.376648,40.203903 48.869915,38.678772 50.833473,37.425690   C51.933174,41.608765 52.562588,45.519791 53.191994,49.430817   C51.914593,53.417904 50.637192,57.404991 49.152966,61.691841  z"/>
<path fill="#7A7BEC" opacity="1.000000" stroke="none" d=" M334.478241,154.287537   C333.563416,150.940292 332.945435,147.599472 332.715363,144.232147   C332.629242,142.971588 333.446198,141.649307 334.241730,140.279114   C335.477905,141.977905 336.323730,143.752762 337.217377,145.627945   C338.629028,144.335022 339.896301,143.174332 341.163574,142.013657   C342.000153,143.546234 343.295715,145.006210 343.552643,146.630478   C343.847809,148.496536 343.223267,150.508072 342.996887,152.822479   C340.306824,153.553513 337.618073,153.918472 334.478241,154.287537  z"/>
<path fill="#10A7E6" opacity="1.000000" stroke="none" d=" M129.089294,133.690765   C128.242264,132.485336 127.405624,131.043655 127.051155,129.491852   C126.420753,126.732063 126.082375,123.905586 125.388062,120.712448   C126.714142,117.861115 128.274017,115.404343 129.833893,112.947571   C130.905289,113.918472 131.976700,114.889374 133.351898,115.928802   C132.209442,121.799866 130.763184,127.602386 129.089294,133.690765  z"/>
<path fill="#2066B1" opacity="1.000000" stroke="none" d=" M91.986694,38.000645   C91.324905,36.739525 90.148788,35.501057 90.092079,34.213295   C89.869614,29.161465 90.000130,24.094088 89.998245,18.571438   C91.798241,19.365210 93.599525,20.620031 95.682388,22.477394   C95.643547,27.396107 95.323135,31.712282 94.772049,36.225388   C93.689819,36.948425 92.838257,37.474533 91.986694,38.000645  z"/>
<path fill="#1D6FB8" opacity="1.000000" stroke="none" d=" M96.207123,150.801636   C95.533760,146.513229 95.156731,142.058304 95.248978,137.276184   C97.665970,136.228546 99.613693,135.508087 101.561409,134.787643   C102.189301,135.111099 102.817200,135.434555 103.767792,135.903183   C101.561470,140.910614 99.032463,145.772842 96.207123,150.801636  z"/>
<path fill="#2173BB" opacity="1.000000" stroke="none" d=" M95.002724,36.028458   C95.323135,31.712282 95.643547,27.396107 95.973907,22.677593   C98.603745,26.943295 101.223648,31.611336 103.916939,36.640064   C103.430557,37.297241 102.870781,37.593735 101.681900,37.895996   C99.036110,37.277336 97.019417,36.652897 95.002724,36.028458  z"/>
<path fill="#2076BD" opacity="1.000000" stroke="none" d=" M45.210930,130.250702   C45.681675,128.289230 46.775940,126.623032 46.922588,124.877220   C47.385277,119.369057 47.492760,113.831055 48.114967,108.053665   C49.551163,111.292694 50.610081,114.782669 51.339310,118.752945   C50.672470,121.082718 50.291180,122.925453 50.008392,124.783195   C49.569744,127.664856 49.198223,130.556747 48.798244,133.444290   C47.665760,132.466049 46.533279,131.487808 45.210930,130.250702  z"/>
<path fill="#1785CB" opacity="1.000000" stroke="none" d=" M53.457436,49.183861   C52.562588,45.519791 51.933174,41.608765 51.140816,37.317127   C53.061939,35.244473 55.146008,33.552429 57.597866,32.212002   C58.342480,34.440300 58.719303,36.316982 59.096123,38.193665   C57.305042,41.774742 55.513958,45.355824 53.457436,49.183861  z"/>
<path fill="#A07CEB" opacity="1.000000" stroke="none" d=" M365.055115,127.229149   C364.965332,117.858398 368.173065,109.296303 371.742126,100.836060   C372.364441,110.339912 369.007080,118.804680 365.055115,127.229149  z"/>
<path fill="#29CDFB" opacity="1.000000" stroke="none" d=" M199.435028,153.197479   C198.832260,151.913177 198.636566,150.644562 198.139069,149.133133   C202.197113,147.262482 206.556946,145.634644 211.193069,143.903656   C213.103882,145.917542 213.137589,147.907272 210.447342,149.149796   C207.018188,150.733582 203.386490,151.878860 199.435028,153.197479  z"/>
<path fill="#27BFF9" opacity="1.000000" stroke="none" d=" M217.545197,30.430843   C217.106461,26.643137 217.053177,22.807642 216.998962,18.510586   C218.796204,18.215733 220.594391,18.382441 222.693787,18.786386   C222.997681,22.056362 223.000366,25.089100 223.005478,28.577812   C221.315491,29.483541 219.623062,29.933298 217.545197,30.430843  z"/>
<path fill="#167BC3" opacity="1.000000" stroke="none" d=" M48.941597,133.698761   C49.198223,130.556747 49.569744,127.664856 50.008392,124.783195   C50.291180,122.925453 50.672470,121.082718 51.383163,119.119705   C53.159462,122.090614 54.562218,125.175072 55.630161,128.700958   C54.863678,130.409348 54.552273,131.735596 53.965500,132.926102   C53.411732,134.049652 52.568256,135.030411 51.852222,136.073990   C50.929798,135.367081 50.007374,134.660156 48.941597,133.698761  z"/>
<path fill="#E8FBFF" opacity="1.000000" stroke="none" d=" M190.848175,119.672379   C191.144028,112.419312 194.474030,106.808487 198.869339,101.310638   C198.529297,103.945740 198.228241,106.930252 197.408386,109.764702   C196.743637,112.062866 195.455475,114.180710 194.716797,116.694008   C194.989792,117.009483 195.021088,116.987251 194.792847,116.733612   C194.382416,117.054619 194.200226,117.629265 194.018051,118.203911   C193.981506,120.397736 193.460663,121.792801 190.848175,119.672379  z"/>
<path fill="#C85CE5" opacity="1.000000" stroke="none" d=" M436.165100,105.268524   C436.687653,104.948067 437.018768,104.956856 437.598145,104.971062   C436.410156,111.306183 434.973633,117.643791 433.537109,123.981400   C432.827362,123.930122 432.117615,123.878853 431.407837,123.827583   C431.303864,122.591057 430.950531,121.314346 431.142151,120.125481   C431.743622,116.393951 432.386505,112.651466 433.366028,109.008049   C433.710297,107.727509 435.075043,106.721329 436.165100,105.268524  z"/>
<path fill="#188CD0" opacity="1.000000" stroke="none" d=" M52.006279,136.371033   C52.568256,135.030411 53.411732,134.049652 53.965500,132.926102   C54.552273,131.735596 54.863678,130.409348 55.676788,129.060516   C57.658073,131.748215 59.257919,134.517807 60.720634,137.808167   C59.977032,139.263718 59.370556,140.198517 58.764084,141.133301   C56.562840,139.644897 54.361591,138.156494 52.006279,136.371033  z"/>
<path fill="#1698DA" opacity="1.000000" stroke="none" d=" M59.383827,38.010078   C58.719303,36.316982 58.342480,34.440300 57.941544,32.140514   C60.339523,30.274511 62.761616,28.831615 65.183708,27.388720   C65.530594,27.795160 65.877472,28.201599 66.224350,28.608040   C64.040077,31.680859 61.855804,34.753677 59.383827,38.010078  z"/>
<path fill="#23CFFC" opacity="1.000000" stroke="none" d=" M198.276321,145.578766   C197.458344,144.855988 196.948608,144.024490 196.158081,143.061951   C198.560806,141.101578 201.244339,139.272247 204.849594,136.814560   C204.763229,142.551666 201.034454,143.488525 198.276321,145.578766  z"/>
<path fill="#1AA0DF" opacity="1.000000" stroke="none" d=" M58.961792,141.417252   C59.370556,140.198517 59.977032,139.263718 60.864361,138.129074   C63.470154,140.375519 65.795090,142.821808 68.120033,145.268112   C67.855362,145.645508 67.590691,146.022903 67.326019,146.400299   C64.603844,144.833939 61.881672,143.267563 58.961792,141.417252  z"/>
<path fill="transparent" opacity="1.000000" stroke="none" d=" M203.923660,104.395210   C203.923660,104.395210 203.911407,104.277573 203.907959,104.256119   C204.661530,103.915611 205.418549,103.596565 206.580139,103.129135   C206.984726,102.980759 207.093063,103.067734 207.093063,103.067734   C204.870850,107.356483 202.648636,111.645233 200.426437,115.933983   C200.018494,115.747070 199.610565,115.560158 199.202621,115.373245   C199.591202,113.676384 199.979767,111.979523 200.167114,110.131897   C199.936417,109.667816 200.018509,109.387138 200.794250,109.009262   C201.834793,107.848656 202.293259,106.817886 202.751724,105.787109   C202.751724,105.787109 202.861664,105.827408 203.128876,105.717697   C203.571960,105.203735 203.747818,104.799477 203.923660,104.395210  z"/>
<path fill="transparent" opacity="1.000000" stroke="none" d=" M194.974396,117.020950   C195.141281,117.072800 195.323563,117.113190 195.776505,117.081635   C197.157059,117.079979 198.266937,117.150261 200.585480,117.297073   C199.177902,118.966187 198.375534,119.917633 197.573166,120.869095   C196.895264,120.060448 196.217377,119.251808 195.347778,117.970261   C195.111099,117.327316 195.066101,117.157288 195.021088,116.987251   C195.021088,116.987251 194.989792,117.009483 194.974396,117.020950  z"/>
<path fill="#B746E1" opacity="1.000000" stroke="none" d=" M418.903259,135.636597   C418.744720,135.363937 418.726776,134.802887 418.962067,134.165756   C419.158112,134.509186 419.100952,134.928711 418.903259,135.636597  z"/>
<path fill="#1DCBFB" opacity="1.000000" stroke="none" d=" M194.792847,116.733612   C195.066101,117.157288 195.111099,117.327316 195.083221,117.750916   C194.841537,118.020622 194.672714,118.036758 194.260971,118.128403   C194.200226,117.629265 194.382416,117.054619 194.792847,116.733612  z"/>
<path fill="#E8FBFF" opacity="1.000000" stroke="none" d=" M206.933044,102.934341   C207.062469,102.463272 207.243591,102.038612 207.424698,101.613953   C207.447693,102.001450 207.470688,102.388947 207.293365,102.922089   C207.093063,103.067734 206.984726,102.980759 206.933044,102.934341  z"/>
<path fill="#78E7FE" opacity="1.000000" stroke="none" d=" M188.858337,123.782440   C188.334808,124.116692 187.814560,124.134621 186.913422,124.065483   C187.054749,123.624359 187.576965,123.270309 188.426544,122.879471   C188.789810,123.050499 188.825729,123.258308 188.858337,123.782440  z"/>
<path fill="transparent" opacity="1.000000" stroke="none" d=" M413.520569,128.471008   C410.414246,134.538696 407.442963,140.225342 403.951752,146.907074   C402.683014,144.446457 402.166138,143.443985 401.413452,142.219315   C400.683411,140.086349 400.410187,138.074585 399.602753,136.306824   C399.190674,135.404724 397.820038,134.940460 395.827545,133.532990   C395.601807,130.395401 395.259399,125.636894 394.953613,120.421425   C397.604523,119.550636 400.218842,119.136803 403.451447,118.625092   C398.360870,112.785995 396.581360,107.513115 399.745972,100.946060   C401.454254,97.401108 401.805573,93.222908 403.039795,89.418221   C403.503204,87.989624 404.732819,86.809570 405.797119,85.213806   C407.588959,81.289696 409.287811,77.705139 410.784027,74.037926   C413.257935,67.974358 415.601166,61.857491 418.099396,55.414047   C421.857178,53.203796 420.846039,56.639801 420.848969,57.783234   C420.877136,68.732018 421.526459,79.772003 420.349518,90.606796   C418.982086,103.195023 415.959686,115.603477 413.520569,128.471008  z"/>
<path fill="transparent" opacity="1.000000" stroke="none" d=" M458.103546,73.454239   C456.386322,77.312294 454.859314,80.861961 453.332306,84.411621   C453.210449,70.922630 454.195251,57.594269 459.102936,44.448822   C460.332733,44.452267 462.379242,44.646435 462.494415,45.225052   C464.191895,53.752522 467.144043,62.352440 461.812439,72.033928   C461.287109,69.574654 460.984192,68.156471 460.535217,66.054604   C459.672241,68.784760 458.983002,70.965309 458.103546,73.454239  z"/>
<path fill="transparent" opacity="1.000000" stroke="none" d=" M458.784241,143.193573   C458.239197,142.988312 457.329285,142.430389 457.151245,141.695236   C454.176239,129.411209 456.397949,116.988869 456.598480,104.394928   C457.546661,117.029549 458.153290,129.893997 458.784241,143.193573  z"/>
<path fill="transparent" opacity="1.000000" stroke="none" d=" M280.170105,49.429573   C282.747040,45.593117 285.225006,42.108059 287.854767,38.325100   C291.893066,41.019806 290.675934,45.536236 290.399719,49.117474   C289.882111,55.828640 288.042633,62.437859 286.664490,69.481293   C284.059967,76.255363 281.543945,82.637627 278.962280,89.362434   C275.190460,96.517563 271.484283,103.330154 267.651001,110.481102   C266.930542,111.351456 266.337097,111.883461 264.962830,113.115494   C265.539215,106.839760 266.033783,101.454880 266.591888,95.624382   C268.552734,86.434151 270.450043,77.689545 272.460266,68.555511   C275.072510,62.037720 277.571838,55.909348 280.170105,49.429573  z"/>
<path fill="transparent" opacity="1.000000" stroke="none" d=" M269.030212,113.559998   C271.812408,111.547340 274.529144,109.881828 278.669983,107.343246   C277.100098,111.043373 276.039795,113.542412 274.930450,116.388496   C273.258667,118.319778 271.680817,120.560760 269.434357,116.886703   C269.092377,115.758759 269.028564,114.832947 269.030212,113.559998  z"/>
<path fill="transparent" opacity="1.000000" stroke="none" d=" M253.074219,143.318802   C252.420151,137.455399 251.824951,131.981277 251.229736,126.507164   C251.733810,126.423225 252.237885,126.339279 252.741943,126.255341   C253.165115,129.395294 253.737167,132.524460 253.965347,135.678528   C254.155228,138.303391 253.944046,140.957520 253.898956,143.598495   C253.896301,143.754272 253.790665,143.908295 253.732971,144.063141   C253.533020,143.944794 253.333054,143.826447 253.074219,143.318802  z"/>
<path fill="transparent" opacity="1.000000" stroke="none" d=" M341.234924,141.675629   C339.896301,143.174332 338.629028,144.335022 337.217377,145.627945   C336.323730,143.752762 335.477905,141.977905 334.394836,139.947754   C333.851349,138.846725 333.545105,138.000992 333.238922,137.155273   C332.435211,137.588608 331.631470,138.021927 330.939667,138.394882   C330.713837,137.654419 330.209808,136.001892 329.414185,134.156799   C329.078644,133.528564 329.034668,133.092880 328.965790,132.329285   C328.684753,128.143921 328.428619,124.286453 328.180878,120.555473   C331.480896,119.800377 334.444214,119.122314 337.777252,118.359665   C333.275360,112.999779 330.740021,108.173447 333.498566,101.582390   C335.384857,97.075325 336.033508,92.050293 337.256897,86.887650   C338.909607,84.717384 341.167145,83.181473 342.061798,81.068481   C345.579559,72.760124 348.668396,64.270119 351.990997,55.506325   C355.723358,53.757160 354.836395,57.079205 354.849426,58.326653   C354.955627,68.478500 355.409058,78.683876 354.564392,88.773140   C353.638794,99.828789 351.442200,110.778030 349.754608,122.152016   C346.908539,128.799469 344.107391,135.068527 341.234924,141.675629  z"/>
<path fill="transparent" opacity="1.000000" stroke="none" d=" M94.772049,36.225388   C97.019417,36.652897 99.036110,37.277336 101.386292,38.010674   C102.103561,39.397614 102.487343,40.675652 102.562042,42.559998   C96.774689,61.603886 95.642082,80.530922 97.191116,99.505714   C98.044205,109.955650 100.841232,120.246895 102.761856,130.609680   C102.451019,131.804520 102.140182,132.999344 101.695374,134.490906   C99.613693,135.508087 97.665970,136.228546 95.357506,137.035248   C93.522545,135.863556 92.048332,134.605576 90.283768,133.183060   C88.705063,130.222397 87.416718,127.426277 85.949196,124.313980   C84.337288,117.217606 82.904556,110.437416 81.282310,103.316772   C81.154198,91.977020 81.215607,80.977722 81.229156,69.514221   C82.850113,61.987045 84.518921,54.924057 86.223640,47.469757   C88.072296,44.255039 89.885040,41.431629 91.842239,38.304432   C92.838257,37.474533 93.689819,36.948425 94.772049,36.225388  z"/>
<path fill="#1A75BD" opacity="1.000000" stroke="none" d=" M102.933578,130.174255   C100.841232,120.246895 98.044205,109.955650 97.191116,99.505714   C95.642082,80.530922 96.774689,61.603886 102.549355,42.910572   C103.230560,44.582527 103.944611,46.509251 103.950317,48.438065   C104.025238,73.758446 104.018158,99.079163 103.961670,124.399651   C103.957703,126.180000 103.403595,127.959122 102.933578,130.174255  z"/>
<path fill="transparent" opacity="1.000000" stroke="none" d=" M129.878845,112.546967   C128.274017,115.404343 126.714142,117.861115 124.981766,120.613571   C123.793335,120.949829 122.777405,120.990402 121.380142,121.057640   C120.089317,120.205025 119.179802,119.325745 118.041870,118.225510   C116.768105,115.726051 115.722763,113.447563 114.361923,111.027267   C113.373444,103.384613 112.344887,95.894730 112.113434,88.380287   C111.791618,77.932564 112.579323,67.545235 116.801346,57.362427   C117.902748,55.651749 118.947571,54.303493 120.072250,52.649426   C121.435127,52.350166 122.718147,52.356720 124.373657,52.476627   C125.895691,54.303905 127.045235,56.017834 128.453262,57.917618   C134.768906,75.990982 134.427902,94.021980 129.878845,112.546967  z"/>
<path fill="transparent" opacity="1.000000" stroke="none" d=" M185.679276,127.860840   C185.526535,130.578720 185.058319,133.456802 184.497345,136.646545   C183.107407,140.504105 181.810196,144.049973 180.512985,147.595856   C180.069733,147.442368 179.626480,147.288864 179.183228,147.135376   C178.777512,140.057770 181.020401,133.738632 185.679276,127.860840  z"/>
<path fill="#FEFEFF" opacity="1.000000" stroke="none" d=" M202.439331,105.884048   C202.293259,106.817886 201.834793,107.848656 200.982819,108.889008   C201.101868,107.926048 201.614410,106.953514 202.439331,105.884048  z"/>
<path fill="#FEFEFF" opacity="1.000000" stroke="none" d=" M203.530167,104.444191   C203.747818,104.799477 203.571960,105.203735 203.098404,105.767685   C202.912689,105.449310 203.024673,104.971245 203.530167,104.444191  z"/>
<path fill="#7A7BEC" opacity="1.000000" stroke="none" d=" M332.467865,148.450104   C332.523071,148.417221 332.412659,148.482971 332.467865,148.450104  z"/>
</svg>